HIERARCHY
ROOT Hips
{
	OFFSET -1.602300 6.242603 43.997101
	CHANNELS 6 Xposition Yposition Zposition Zrotation Xrotation Yrotation
	JOINT Chest
	{
		OFFSET -0.204900 1.598101 7.917301
		CHANNELS 6 Xposition Yposition Zposition Zrotation Xrotation Yrotation
		JOINT Chest2
		{
			OFFSET 0.000000 0.000000 3.404099
			CHANNELS 6 Xposition Yposition Zposition Zrotation Xrotation Yrotation
			JOINT Neck
			{
				OFFSET 0.000000 0.000000 7.928600
				CHANNELS 6 Xposition Yposition Zposition Zrotation Xrotation Yrotation
				JOINT Head
				{
					OFFSET 0.000000 0.000000 2.173897
					CHANNELS 6 Xposition Yposition Zposition Zrotation Xrotation Yrotation
					End Site
					{
						OFFSET 0.000000 0.000001 10.404503
					}
				}
			}
			JOINT LeftCollar
			{
				OFFSET 2.833800 -1.396299 4.843300
				CHANNELS 6 Xposition Yposition Zposition Zrotation Xrotation Yrotation
				JOINT LeftShoulder
				{
					OFFSET 4.363600 0.000000 0.000000
					CHANNELS 6 Xposition Yposition Zposition Zrotation Xrotation Yrotation
					JOINT LeftElbow
					{
						OFFSET 0.000000 -0.000001 -10.306900
						CHANNELS 6 Xposition Yposition Zposition Zrotation Xrotation Yrotation
						JOINT LeftWrist
						{
							OFFSET 0.000000 -0.000001 -12.404900
							CHANNELS 6 Xposition Yposition Zposition Zrotation Xrotation Yrotation
							End Site
							{
								OFFSET 0.000000 0.000000 -2.173901
							}
						}
					}
				}
			}
			JOINT RightCollar
			{
				OFFSET -2.354800 -1.897200 5.063099
				CHANNELS 6 Xposition Yposition Zposition Zrotation Xrotation Yrotation
				JOINT RightShoulder
				{
					OFFSET -4.375800 0.000000 0.000000
					CHANNELS 6 Xposition Yposition Zposition Zrotation Xrotation Yrotation
					JOINT RightElbow
					{
						OFFSET 0.000000 -0.000001 -10.005001
						CHANNELS 6 Xposition Yposition Zposition Zrotation Xrotation Yrotation
						JOINT RightWrist
						{
							OFFSET 0.000000 -0.000001 -13.174900
							CHANNELS 6 Xposition Yposition Zposition Zrotation Xrotation Yrotation
							End Site
							{
								OFFSET 0.000000 0.000000 -2.173901
							}
						}
					}
				}
			}
		}
	}
	JOINT LeftHip
	{
		OFFSET 2.240600 0.386800 -2.614101
		CHANNELS 6 Xposition Yposition Zposition Zrotation Xrotation Yrotation
		JOINT LeftKnee
		{
			OFFSET 0.000000 -0.000001 -18.592899
			CHANNELS 6 Xposition Yposition Zposition Zrotation Xrotation Yrotation
			JOINT LeftAnkle
			{
				OFFSET 0.000000 -0.000001 -18.765800
				CHANNELS 6 Xposition Yposition Zposition Zrotation Xrotation Yrotation
				End Site
				{
					OFFSET 0.000000 -8.655000 0.000000
				}
			}
		}
	}
	JOINT RightHip
	{
		OFFSET -2.014900 -0.220900 -2.615898
		CHANNELS 6 Xposition Yposition Zposition Zrotation Xrotation Yrotation
		JOINT RightKnee
		{
			OFFSET 0.000000 -0.000001 -18.633900
			CHANNELS 6 Xposition Yposition Zposition Zrotation Xrotation Yrotation
			JOINT RightAnkle
			{
				OFFSET 0.000000 -0.000001 -18.285101
				CHANNELS 6 Xposition Yposition Zposition Zrotation Xrotation Yrotation
				End Site
				{
					OFFSET 0.000000 -7.524500 0.000000
				}
			}
		}
	}
}
MOTION
Frames: 8
Frame Time: 0.041667
-2.262396 22.976706 7.417507 -36.542028 -18.723297 12.150517 -0.204898 1.598099 7.917306 40.132586 11.232992 -4.354426 0.000000 -0.000000 3.404100 -26.606075 -11.375465 -3.901582 -0.000004 0.000000 7.928600 10.671322 20.398312 -27.284121 -0.000001 0.000000 2.173897 0.922575 4.506091 -2.839009 2.833801 -1.396302 4.843308 -5.303235 14.656850 4.616467 4.363592 0.000000 -0.000007 -28.719245 20.851493 -68.597612 0.000006 0.000008 -10.306902 582.385751 -122.865555 605.811989 -0.000003 -0.000002 -12.404900 56.559748 357.062428 -372.304432 -2.354804 -1.897202 5.063105 22.139322 10.697705 -28.509350 -4.375795 0.000008 -0.000009 69.610208 -9.634978 104.347484 0.000004 0.000013 -10.005002 -649.549242 -175.384040 -606.888536 -0.000003 0.000008 -13.174898 -80.779650 -523.350896 241.492867 2.240602 0.386803 -2.614105 80.883209 -58.703434 81.615098 -0.000000 -0.000001 -18.592897 -20.220606 39.785855 4.604485 0.000001 0.000002 -18.765799 -43.444286 59.991833 16.354082 -2.014896 -0.220897 -2.615900 -94.522141 -16.990785 -66.716291 -0.000001 0.000004 -18.633883 102.150349 -6.836271 -164.292496 -0.000005 -0.000006 -18.285086 -57.514994 35.047142 -169.060487
-2.244897 22.982904 7.403709 -36.505961 -18.926895 12.316931 -0.204902 1.598101 7.917310 40.179602 11.301888 -4.418043 0.000000 0.000003 3.404100 -26.519207 -11.319153 -3.885917 -0.000002 -0.000001 7.928604 11.167310 20.394894 -27.773567 -0.000000 0.000002 2.173899 0.817540 4.693061 -2.661799 2.833801 -1.396300 4.843306 -5.298718 14.730643 4.514544 4.363591 0.000004 0.000004 -28.543091 20.666821 -68.881932 0.000006 -0.000003 -10.306902 583.479893 -122.837155 606.994212 -0.000003 -0.000002 -12.404896 56.372522 357.038358 -372.246348 -2.354802 -1.897200 5.063102 22.401388 10.765551 -28.585679 -4.375796 0.000009 -0.000008 69.497455 -10.199806 103.099745 0.000007 0.000010 -10.004999 -648.716942 -175.235566 -607.419870 -0.000003 0.000009 -13.174898 -80.417110 -523.634977 242.298775 2.240599 0.386804 -2.614101 80.671200 -58.757980 81.326134 0.000000 -0.000001 -18.592897 -20.232719 39.882967 4.545562 0.000002 0.000001 -18.765799 -43.426124 60.019495 16.649734 -2.014899 -0.220897 -2.615898 -94.418022 -16.983851 -66.507492 -0.000002 0.000004 -18.633881 102.044187 -6.811547 -164.305719 -0.000003 -0.000005 -18.285084 -57.487701 35.059460 -169.088136
-2.228896 22.989803 7.390003 -36.461875 -19.112748 12.467353 -0.204899 1.598094 7.917307 40.213323 11.396859 -4.461861 0.000000 0.000002 3.404106 -26.424040 -11.256887 -3.868137 -0.000003 -0.000003 7.928608 11.618905 20.374082 -28.245110 -0.000001 0.000002 2.173904 0.689550 4.818844 -2.490179 2.833800 -1.396301 4.843308 -5.224014 14.716414 4.273949 4.363590 0.000004 -0.000001 -28.492421 20.497218 -68.984228 0.000007 0.000010 -10.306903 584.475461 -122.773661 608.044532 -0.000002 -0.000003 -12.404898 56.217368 357.015709 -372.230994 -2.354804 -1.897201 5.063104 22.488972 10.756643 -28.556913 -4.375797 0.000006 0.000002 69.448400 -10.471923 101.794114 0.000003 0.000009 -10.005002 -648.185116 -175.191784 -607.820611 -0.000005 0.000007 -13.174897 -79.508333 -523.805131 243.031791 2.240601 0.386805 -2.614101 80.475167 -58.806515 81.067440 0.000000 -0.000000 -18.592896 -20.028504 39.969943 4.375533 0.000002 0.000001 -18.765797 -43.691535 60.047854 17.132768 -2.014897 -0.220899 -2.615897 -94.334625 -16.979200 -66.319962 -0.000001 0.000002 -18.633886 101.953428 -6.784482 -164.315282 -0.000004 -0.000007 -18.285084 -57.459622 35.074183 -169.117314
-2.214296 22.996906 7.375908 -36.402610 -19.269217 12.603639 -0.204901 1.598096 7.917301 40.223698 11.503865 -4.492878 0.000001 0.000001 3.404096 -26.300581 -11.205121 -3.847677 -0.000002 -0.000003 7.928600 11.989438 20.376630 -28.653070 0.000001 0.000006 2.173896 0.590115 4.912640 -2.465579 2.833801 -1.396304 4.843302 -5.169615 14.708239 4.039267 4.363591 0.000000 0.000004 -28.465672 20.354829 -69.090287 0.000004 0.000011 -10.306904 585.513322 -122.742475 609.111407 -0.000003 -0.000001 -12.404896 56.028988 357.017622 -372.214246 -2.354804 -1.897201 5.063103 22.460377 10.718121 -28.470646 -4.375796 0.000011 -0.000002 69.313654 -10.838854 100.285509 0.000003 0.000011 -10.004999 -647.577229 -175.089386 -608.368774 -0.000002 0.000009 -13.174894 -78.307593 -523.899169 243.631973 2.240599 0.386803 -2.614104 80.303238 -58.850583 80.863409 -0.000001 -0.000000 -18.592897 -19.709810 40.051625 4.151012 0.000001 0.000002 -18.765795 -44.098652 60.053496 17.669365 -2.014898 -0.220897 -2.615900 -94.252963 -17.018374 -66.160866 -0.000002 0.000002 -18.633884 101.840484 -6.747534 -164.319065 -0.000006 -0.000005 -18.285082 -57.424406 35.083724 -169.150290
-2.199298 23.004204 7.362408 -36.360994 -19.425750 12.720594 -0.204896 1.598099 7.917308 40.250049 11.617077 -4.533707 0.000000 -0.000001 3.404106 -26.168951 -11.137663 -3.824123 -0.000002 -0.000000 7.928600 12.351921 20.316790 -29.051499 -0.000001 0.000002 2.173896 0.460214 5.009297 -2.315581 2.833802 -1.396298 4.843304 -5.111637 14.669122 3.782634 4.363587 -0.000000 0.000002 -28.469593 20.243431 -69.162291 0.000006 0.000014 -10.306906 586.621452 -122.748909 610.213362 -0.000003 -0.000002 -12.404900 55.810394 357.057319 -372.152201 -2.354804 -1.897199 5.063101 22.381579 10.656280 -28.248320 -4.375796 0.000007 -0.000005 69.126876 -11.282089 98.667731 0.000005 0.000005 -10.004998 -646.942623 -174.895695 -608.965787 -0.000004 0.000009 -13.174898 -76.723727 -523.947418 244.176613 2.240603 0.386804 -2.614100 80.121514 -58.912998 80.646181 -0.000001 -0.000000 -18.592901 -19.445064 40.121190 3.969487 0.000001 0.000002 -18.765795 -44.407950 60.033989 18.106394 -2.014895 -0.220893 -2.615898 -94.267812 -16.932515 -66.055688 0.000001 0.000005 -18.633883 101.937882 -6.697110 -164.340430 -0.000005 -0.000006 -18.285082 -57.347204 35.109184 -169.225040
-2.183098 23.011805 7.348602 -36.329814 -19.571327 12.821223 -0.204897 1.598100 7.917310 40.282536 11.732865 -4.582618 0.000001 0.000002 3.404098 -26.051077 -11.057603 -3.803241 -0.000004 -0.000004 7.928600 12.810845 20.178452 -29.499939 0.000001 -0.000001 2.173900 0.220968 5.073321 -1.967177 2.833800 -1.396302 4.843301 -5.029553 14.544299 3.626728 4.363586 0.000001 0.000001 -28.477823 20.296139 -69.272168 0.000005 0.000008 -10.306903 587.789141 -122.705906 611.308160 -0.000003 -0.000001 -12.404898 55.642539 357.106633 -372.074801 -2.354804 -1.897201 5.063103 22.269574 10.569732 -27.984767 -4.375798 0.000009 -0.000004 68.911315 -11.752639 97.035753 0.000004 0.000009 -10.005002 -646.187422 -174.566767 -609.570997 -0.000004 0.000009 -13.174899 -73.217196 -522.769237 245.571611 2.240603 0.386801 -2.614100 79.950609 -58.979715 80.448345 -0.000001 -0.000001 -18.592897 -19.182752 40.184339 3.788755 0.000002 0.000001 -18.765797 -44.662067 59.992728 18.470679 -2.014894 -0.220894 -2.615896 -94.353128 -16.776999 -66.006900 -0.000002 0.000004 -18.633884 102.184049 -6.628442 -164.376302 -0.000003 -0.000007 -18.285084 -57.226617 35.144445 -169.340238
-2.166494 23.019403 7.334705 -36.309928 -19.713398 12.901320 -0.204897 1.598102 7.917305 40.324337 11.876201 -4.630725 0.000000 0.000004 3.404102 -25.993192 -10.999842 -3.795792 -0.000007 -0.000001 7.928599 13.235282 20.066930 -29.824523 -0.000000 0.000001 2.173900 0.206358 5.141945 -1.712748 2.833798 -1.396301 4.843299 -4.878943 14.341430 3.483341 4.363591 0.000004 0.000007 -28.487247 20.420394 -69.339718 0.000006 0.000014 -10.306905 588.960874 -122.654242 612.416945 -0.000003 -0.000002 -12.404894 55.512786 357.159553 -372.007974 -2.354804 -1.897202 5.063099 22.215440 10.515497 -27.674292 -4.375795 0.000012 -0.000003 68.661583 -12.221399 95.382909 0.000004 0.000005 -10.005002 -645.486864 -174.207130 -610.202871 -0.000000 0.000008 -13.174900 -78.207818 -345.952988 264.859191 2.240603 0.386802 -2.614103 79.767505 -59.054540 80.245570 0.000001 -0.000000 -18.592899 -18.998805 40.233762 3.660652 0.000001 0.000002 -18.765797 -44.754630 59.968569 18.656464 -2.014896 -0.220894 -2.615897 -94.476508 -16.581797 -65.990535 0.000001 0.000004 -18.633886 102.523960 -6.549632 -164.422816 -0.000005 -0.000006 -18.285084 -57.083426 35.183339 -169.476118
-2.150397 23.025906 7.322109 -36.301568 -19.844486 12.964577 -0.204898 1.598098 7.917308 40.370642 12.032912 -4.646181 0.000001 0.000000 3.404100 -25.948686 -10.966109 -3.792198 -0.000004 0.000002 7.928600 13.694674 19.953144 -30.185758 0.000000 0.000000 2.173903 0.122726 5.269496 -1.499752 2.833800 -1.396299 4.843303 -3.843441 13.972140 3.617082 4.363588 0.000007 0.000006 -29.203225 21.004686 -69.793728 0.000003 0.000013 -10.306905 590.193805 -122.676249 613.621900 -0.000002 -0.000002 -12.404894 55.693933 357.109091 -371.755886 -2.354801 -1.897201 5.063100 22.270517 10.536187 -27.563684 -4.375798 0.000009 0.000001 68.348576 -12.570586 93.879570 0.000001 0.000004 -10.005002 -644.789638 -173.756543 -610.839500 -0.000000 0.000006 -13.174906 -77.556095 -345.853049 265.282608 2.240601 0.386809 -2.614103 79.570358 -59.144835 80.036949 0.000002 0.000000 -18.592899 -18.935388 40.267513 3.605911 0.000000 0.000002 -18.765800 -44.670042 59.942649 18.711389 -2.014899 -0.220895 -2.615897 -94.677487 -16.306395 -66.023183 -0.000001 0.000002 -18.633886 103.007866 -6.463058 -164.482266 -0.000006 -0.000006 -18.285082 -56.909351 35.236826 -169.644168
